#!OML:ASF I:\Actors\actors\Patient Classification 1\Patient 1\Session 1\Subject1.ASF
:FULLY-SPECIFIED
:DEGREES
239
root -0.286437 17.5799 7.96185 8.29838 -2.93426 -7.77617
lowerback 3.57899 2.23956 4.06312
upperback -7.69787 3.46109 0.929822
thorax -10.0097 1.41614 -1.69363
lowerneck -13.5039 -1.7113 1.64646
upperneck 31.8988 -3.21229 0.72699
head 12.8627 -1.12304 -0.480766
rclavicle 2.5196e-014 -1.82882e-014
rhumerus -18.2253 51.2239 -101.663
rradius 66.2598
rwrist -16.1223
rhand -13.5838 -64.9381
rfingers 7.12502
rthumb 12.5304 94.5424
lclavicle 2.5196e-014 -1.82882e-014
lhumerus -21.6121 -21.6203 97.5123
lradius 75.9667
lwrist -18.9099
lhand -23.6003 -5.37156
lfingers 7.12502
lthumb 2.8634 24.589
rfemur -1.46783 24.1771 25.4321
rtibia 1.71285
rfoot -11.1665 -22.9089
rtoes 1.18658
lfemur 7.2165 -39.4102 -16.1202
ltibia -3.79221
lfoot -16.4522 47.2372
ltoes 5.8869
240
root -0.27912 17.5753 7.95259 8.68576 -2.95575 -7.88352
lowerback 3.38485 2.23764 4.17263
upperback -7.8051 3.46575 0.982704
thorax -10.0114 1.41162 -1.69183
lowerneck -13.3273 -1.65679 1.81332
upperneck 31.5574 -3.04144 0.356676
head 12.6716 -1.0837 -0.621898
rclavicle -3.40419e-014 -2.14687e-014
rhumerus -17.0207 50.4162 -100.567
rradius 69.3276
rwrist -15.9099
rhand -14.4987 -65.0937
rfingers 7.12502
rthumb 11.6482 94.75
lclavicle -3.40419e-014 -2.14687e-014
lhumerus -21.7494 -21.4661 97.4711
lradius 75.9732
lwrist -18.8417
lhand -23.6273 -5.19405
lfingers 7.12502
lthumb 2.83734 24.7668
rfemur -2.11996 24.0552 25.2779
rtibia 1.93562
rfoot -11.1705 -22.7003
rtoes 1.22876
lfemur 6.62096 -39.5043 -15.6544
ltibia -3.75464
lfoot -16.5844 47.3769
ltoes 6.15479
241
root -0.277466 17.5893 7.95258 8.49813 -2.68344 -7.86802
lowerback 3.55452 2.05049 4.14915
upperback -7.70192 3.22259 1.05063
thorax -10.0165 1.29859 -1.58444
lowerneck -13.2195 -1.52163 2.11445
upperneck 31.3971 -2.75409 -0.149697
head 12.569 -0.990682 -0.823304
rclavicle -1.67973e-014 -1.59028e-014
rhumerus -14.6342 49.7046 -98.937
rradius 72.6473
rwrist -15.1732
rhand -16.4168 -64.9005
rfingers 7.12502
rthumb 9.798 94.6525
lclavicle -1.67973e-014 -1.59028e-014
lhumerus -21.9342 -21.0612 97.357
lradius 75.9967
lwrist -18.7695
lhand -23.7294 -5.26762
lfingers 7.12502
lthumb 2.73867 24.6945
rfemur -1.79811 24.2629 25.4151
rtibia 1.86617
rfoot -11.3275 -23.1615
rtoes 1.67352
lfemur 6.78037 -39.6083 -15.7446
ltibia -3.76522
lfoot -16.2667 47.2323
ltoes 5.80749
242
root -0.275104 17.5977 7.95089 8.47859 -2.55195 -7.91604
lowerback 3.64893 1.89786 4.24927
upperback -7.71571 3.03231 1.06398
thorax -10.0959 1.19615 -1.60804
lowerneck -13.2024 -1.38153 2.43384
upperneck 31.6206 -2.5189 -0.525433
head 12.649 -0.894748 -0.991221
rclavicle 1.70458e-014 1.07344e-014
rhumerus -12.2582 48.2036 -97.4807
rradius 76.4396
rwrist -13.7025
rhand -17.7761 -64.4102
rfingers 7.12502
rthumb 8.48638 94.2197
lclavicle 1.70458e-014 1.07344e-014
lhumerus -22.2387 -20.6085 97.1667
lradius 75.9846
lwrist -18.7811
lhand -23.7066 -5.3368
lfingers 7.12502
lthumb 2.76074 24.6251
rfemur -1.76584 24.3348 25.4907
rtibia 1.8864
rfoot -11.4203 -23.3433
rtoes 1.92968
lfemur 6.68646 -39.5182 -15.5925
ltibia -3.76023
lfoot -15.9628 46.9954
ltoes 5.50334
243
root -0.27021 17.599 7.94769 8.6229 -2.46212 -7.98909
lowerback 3.66279 1.78479 4.52865
upperback -7.84632 2.90251 0.9759
thorax -10.2431 1.10112 -1.84483
lowerneck -13.2295 -1.25921 2.68295
upperneck 32.1244 -2.39835 -0.590366
head 12.8632 -0.812126 -1.04907
rclavicle 7.40473e-015 3.57812e-014
rhumerus -10.5477 45.3711 -96.8151
rradius 80.3867
rwrist -11.0374
rhand -17.3848 -63.4912
rfingers 7.12502
rthumb 8.86401 93.285
lclavicle 7.40473e-015 3.57812e-014
lhumerus -22.5777 -20.2997 96.9421
lradius 75.9017
lwrist -18.8044
lhand -23.49 -5.38423
lfingers 7.12502
lthumb 2.96986 24.5748
rfemur -1.97688 24.2405 25.4798
rtibia 1.92328
rfoot -11.3939 -23.3366
rtoes 1.85662
lfemur 6.33378 -39.3646 -15.2534
ltibia -3.72372
lfoot -15.8194 46.7543
ltoes 5.38932
